<?xml version="1.0" encoding="iso-8859-1"?>
<!-- Generator: Adobe Illustrator 16.0.0, SVG Export Plug-In . SVG Version: 6.00 Build 0)  -->
<!DOCTYPE svg PUBLIC "-//W3C//DTD SVG 1.1//EN" "http://www.w3.org/Graphics/SVG/1.1/DTD/svg11.dtd">
<svg xmlns="http://www.w3.org/2000/svg" xmlns:xlink="http://www.w3.org/1999/xlink" version="1.1" id="Capa_1" x="0px" y="0px" width="30px" height="30px" viewBox="0 0 512 512" style="enable-background:new 0 0 512 512;" xml:space="preserve">
<g>
	<path d="M304,198.313c0-26.5-21.5-48-48-48s-48,21.5-48,48c0,19.969,12.25,37.063,29.594,44.313L128,512   c40-23.469,84-35.219,128-35.219s88,11.75,128,35.219L274.406,242.625C291.781,235.375,304,218.281,304,198.313z M329.062,454.531   c-23.875-6.438-48.438-9.75-73.062-9.75s-49.188,3.312-73.063,9.75L256,285.625L329.062,454.531z M352,288   c37.125-49.5,30.531-119.125-15.25-160.75c-45.781-41.656-115.719-41.656-161.5,0C129.468,168.875,122.875,238.5,160,288   c-49.938-52.406-48.563-135.188,3-185.938c51.625-50.75,134.375-50.75,185.969,0S401.906,235.594,352,288z M352,352   c64.312-42.406,93.188-121.938,71.031-195.719C400.906,82.5,333.031,32,256,32c-77,0-144.938,50.5-167.063,124.281   C66.812,230.062,95.688,309.594,160,352C86.53,308.719,51.125,221.625,73.562,139.344C96,57.063,170.75,0,256,0   c85.281,0,160,57.063,182.438,139.344C460.876,221.625,425.469,308.719,352,352z" fill="#f1b014"/>
</g>
<g>
</g>
<g>
</g>
<g>
</g>
<g>
</g>
<g>
</g>
<g>
</g>
<g>
</g>
<g>
</g>
<g>
</g>
<g>
</g>
<g>
</g>
<g>
</g>
<g>
</g>
<g>
</g>
<g>
</g>
</svg>
