<svg xmlns="http://www.w3.org/2000/svg" xmlns:xlink="http://www.w3.org/1999/xlink" version="1.1" id="Layer_1" x="0px" y="0px" width="100px" height="76.917px" viewBox="5.0 -7.6917 100.0 103.83795" enable-background="new 0 0 100 76.917" xml:space="preserve">
<g id="Your_Icon">
	<path fill="#010101" d="M97.113,61.594c-0.1-0.061-0.209-0.089-0.312-0.138C95.076,41.76,90.685,23.347,79.758,6.76   c0.388-2.356-0.645-4.781-2.793-6.009c-2.783-1.593-6.367-0.568-8.001,2.29c-0.432,0.758-0.673,1.564-0.763,2.374   c-9.851,1.966-19.631,4.949-26.969,11.563c-0.078-0.051-0.146-0.116-0.226-0.163c-2.786-1.594-6.37-0.568-8.004,2.289   c-0.637,1.113-0.874,2.335-0.775,3.511C20.88,28.845,10.54,36.524,5.067,48.164c-1.717,0.277-3.316,1.291-4.261,2.943   c-1.636,2.86-0.702,6.467,2.083,8.062c2.785,1.592,6.368,0.567,8.002-2.292c0.061-0.105,0.094-0.223,0.148-0.331   c11.031-1.594,19.184,3.757,26.219,11.821c-1.438,2.815-0.504,6.255,2.2,7.802c2.781,1.591,6.368,0.565,8.001-2.294   c0.408-0.712,0.657-1.47,0.756-2.233c12.262-6.219,26.326-6.109,40.109-4.818c-0.022,2.058,0.985,4.051,2.865,5.122   c2.782,1.592,6.367,0.569,8-2.29C100.831,66.795,99.898,63.187,97.113,61.594z M46.53,38.372   c-1.284-3.933-3.009-7.837-5.011-11.697c0.462-0.357,0.859-0.808,1.215-1.302c11.376-0.886,24.461,2.385,31.074,13.191   c-0.226,0.478-0.387,0.961-0.481,1.458C64.398,38.876,55.365,38.08,46.53,38.372z M71.045,11.101   c1.15,0.658,2.429,0.848,3.656,0.667c2.532,7.642,2.956,15.547,2.401,23.733c-0.267,0.101-0.525,0.212-0.776,0.351   C69.088,24.658,56.522,19.667,43.87,21.864c0-0.706-0.125-1.392-0.366-2.045c6.832-6.308,16.196-9.031,25.454-10.842   C69.444,9.833,70.134,10.58,71.045,11.101z M82.004,35.842c-0.394-0.227-0.806-0.386-1.228-0.508   c0.531-8.161,0.078-16.037-2.26-23.658c8.306,13.801,12.266,28.77,14.107,44.748c-2.021-4.857-4.705-9.28-8.207-13.259   C85.527,40.448,84.56,37.301,82.004,35.842z M33.679,25.989c0.401,0.45,0.855,0.859,1.404,1.173   c0.925,0.531,1.941,0.747,2.945,0.725c1.863,3.529,3.494,7.087,4.737,10.673c-11.771,0.829-23.094,3.829-33.217,10.785   c-0.225-0.184-0.455-0.361-0.714-0.512C14.023,38.493,23.433,31.624,33.679,25.989z M11.573,52.774   c-0.024-0.126-0.031-0.253-0.061-0.379c9.788-6.812,20.861-9.605,32.343-10.294c2.039,7.553,2.138,15.228-1.167,22.993   c-1.004-0.023-2.004,0.199-2.898,0.675C32.151,57.166,23.23,51.476,11.573,52.774z M47.443,67.899   c-0.334-0.575-0.761-1.096-1.294-1.531c3.459-8.204,3.464-16.372,1.422-24.419c8.696-0.196,17.562,0.674,26.234,1.803   c0.487,0.994,1.255,1.854,2.279,2.441c1.924,1.102,4.219,0.926,6.001-0.217c3.977,4.677,6.77,10.083,8.693,16.044   c-0.464,0.344-0.873,0.77-1.235,1.25C75.164,61.868,60.341,61.661,47.443,67.899z"/>
</g>
<text x="0.0" y="90.377475" font-size="3.84585" font-weight="bold" font-family="Helvetica Neue, Helvetica, Arial-Unicode, Arial, Sans-serif" fill="#000000">Created by Lance Weisser</text><text x="0.0" y="94.223325" font-size="3.84585" font-weight="bold" font-family="Helvetica Neue, Helvetica, Arial-Unicode, Arial, Sans-serif" fill="#000000">from the Noun Project</text></svg>