<svg xmlns="http://www.w3.org/2000/svg" xmlns:xlink="http://www.w3.org/1999/xlink" version="1.1" id="Layer_1" x="0px" y="0px" viewBox="0 0 90 70.2" style="enable-background:new 0 0 90 70.2;" xml:space="preserve" height="100px" width="100px">
<path d="M80.1,5.2c-5.5,0-9.9,4.4-9.9,9.9c0,2,0.6,3.8,1.5,5.3L53,44.2c2.2,1.1,4.2,2.7,5.8,4.5l18.9-24c0.8,0.2,1.6,0.3,2.4,0.3  c5.5,0,9.9-4.4,9.9-9.9C90,9.7,85.6,5.2,80.1,5.2z"/>
<path d="M45,50.4c-1,0-1.9,0.1-2.8,0.4L23.5,26.9c-1.6,1.9-3.6,3.4-5.8,4.5l18.7,23.9c-0.9,1.5-1.3,3.2-1.3,5c0,5.5,4.4,9.9,9.9,9.9  s9.9-4.4,9.9-9.9C54.9,54.8,50.5,50.4,45,50.4z"/>
<path d="M62.7,10.3c0.7-2.4,1.8-4.7,3.4-6.6C59.4,1.3,52.3,0,45,0C34.6,0,24.7,2.6,15.8,7.5c-1.6-1.2-3.7-1.9-5.9-1.9  C4.4,5.5,0,10,0,15.4c0,5.5,4.4,9.9,9.9,9.9s9.9-4.4,9.9-9.9c0-0.6-0.1-1.2-0.2-1.7C27.4,9.5,36,7.3,45,7.3  C51.1,7.3,57.1,8.3,62.7,10.3z"/>
</svg>